<?xml version="1.0" encoding="utf-8"?>
<!-- Generator: Adobe Illustrator 25.4.1, SVG Export Plug-In . SVG Version: 6.00 Build 0)  -->
<svg version="1.1" id="레이어_1" xmlns="http://www.w3.org/2000/svg" xmlns:xlink="http://www.w3.org/1999/xlink" x="0px"
	 y="0px" viewBox="0 0 841.9 595.3" style="enable-background:new 0 0 841.9 595.3;" xml:space="preserve">
<style type="text/css">
	.st0{fill:#09102E;}
	.st1{fill:#DCDDDD;}
</style>
<path class="st0" d="M98.3,49.1c-2.7-2.7-5.8-4.8-9.3-6.2c-3.6-1.5-7.4-2.3-11.3-2.3c-3.9,0-7.8,0.8-11.3,2.3
	c-3.5,1.5-6.6,3.6-9.3,6.2c-2.7,2.7-4.8,5.8-6.2,9.3c-1.5,3.6-2.3,7.4-2.3,11.3c0,3.9,0.8,7.8,2.3,11.3c1.5,3.5,3.6,6.6,6.2,9.3
	s5.8,4.8,9.3,6.2c3.6,1.5,7.4,2.3,11.3,2.3c3.9,0,7.8-0.8,11.3-2.3c3.5-1.5,6.6-3.6,9.3-6.2c2.7-2.7,4.8-5.8,6.2-9.3
	c1.5-3.6,2.3-7.4,2.3-11.3c0-3.9-0.8-7.8-2.3-11.3C103,54.9,100.9,51.8,98.3,49.1z"/>
<path class="st0" d="M77.7,103.4c-4.5,0-9-0.9-13.1-2.6c-4-1.7-7.6-4.1-10.7-7.2c-3.1-3.1-5.5-6.7-7.2-10.7
	c-1.8-4.2-2.6-8.6-2.6-13.1s0.9-9,2.6-13.1c1.7-4,4.1-7.6,7.2-10.7c3.1-3.1,6.7-5.5,10.7-7.2c4.2-1.8,8.6-2.6,13.1-2.6
	c4.5,0,9,0.9,13.1,2.6c4,1.7,7.6,4.1,10.7,7.2c3.1,3.1,5.5,6.7,7.2,10.7c1.8,4.2,2.6,8.6,2.6,13.1s-0.9,9-2.6,13.1
	c-1.7,4-4.1,7.6-7.2,10.7c-3.1,3.1-6.7,5.5-10.7,7.2C86.6,102.5,82.2,103.4,77.7,103.4z M77.7,38.6c-4.2,0-8.3,0.8-12.1,2.4
	c-3.7,1.6-7,3.8-9.9,6.7c-2.9,2.9-5.1,6.2-6.7,9.9c-1.6,3.8-2.4,7.9-2.4,12.1S47.4,78,49,81.8c1.6,3.7,3.8,7,6.7,9.9
	c2.9,2.9,6.2,5.1,9.9,6.7c3.8,1.6,7.9,2.4,12.1,2.4c4.2,0,8.3-0.8,12.1-2.4c3.7-1.6,7-3.8,9.9-6.7c2.9-2.9,5.1-6.2,6.7-9.9
	c1.6-3.8,2.4-7.9,2.4-12.1s-0.8-8.3-2.4-12.1c-1.6-3.7-3.8-7-6.7-9.9c-2.9-2.9-6.2-5.1-9.9-6.7C85.9,39.5,81.8,38.6,77.7,38.6z"/>
<g>
	<path class="st1" d="M72.9,66.7c-1.1,0.8-1.1,3,0,3.8L83,78.1l10.2,7.5c1.1,0.8,2.6-0.2,2.6-1.9v-15v-15c0-1.7-1.4-2.8-2.6-1.9
		L83,59.3L72.9,66.7z"/>
	<path class="st1" d="M63.7,86.4L63.7,86.4c1.9,0,3.5-1.6,3.5-3.5V54.4c0-1.9-1.6-3.5-3.5-3.5l0,0c-1.9,0-3.5,1.6-3.5,3.5v28.6
		C60.2,84.9,61.7,86.4,63.7,86.4z"/>
</g>
</svg>
